# xmcd CD database file
#
# Track frame offsets:
#	150
#	18765
#	29293
#	41811
#	60645
#	74716
#	92710
#	105118
#	120057
#	133996
#	147915
#	167031
#
# Disc length: 2494 seconds
#
# Revision: 0
# Processed by: cddbd v1.4PL0 Copyright (c) Steve Scherf et al.
# Submitted via: CDex 1.50beta9
#
DISCID=9d09bc0c
DTITLE=The Strayhorns - Nou's Blue
DYEAR=1900
DGENRE=Jazz
TTITLE0=Sing Sing Sing (Part 1)
TTITLE1=Orange Coloured Sky
TTITLE2=Watch What Happens
TTITLE3=Londonderry Air
TTITLE4=Swinin' the Blues
TTITLE5=Route Egg
TTITLE6=Stuff Like That There
TTITLE7=Intermission Riff
TTITLE8=Someone to Watch Over Me
TTITLE9=Nou's Blue
TTITLE10=Li'l Darlin'
TTITLE11=Is you is or is you ain't My Baby
EXTD=
EXTT0=
EXTT1=
EXTT2=
EXTT3=
EXTT4=
EXTT5=
EXTT6=
EXTT7=
EXTT8=
EXTT9=
EXTT10=
EXTT11=
PLAYORDER=
